<svg xmlns="http://www.w3.org/2000/svg" viewBox="0 0 600 320"><defs><linearGradient id="bg" x1="0" y1="0" x2="0" y2="1"><stop offset="0" stop-color="#0B0A26"/><stop offset="1" stop-color="#03040C"/></linearGradient><radialGradient id="glow"><stop offset="0" stop-color="#fff" stop-opacity=".55"/><stop offset="1" stop-color="#fff" stop-opacity="0"/></radialGradient><radialGradient id="neb"><stop offset="0" stop-color="#8FB8FF" stop-opacity=".7"/><stop offset="1" stop-color="#B08FFF" stop-opacity="0"/></radialGradient></defs><rect width="600" height="320" fill="url(#bg)"/><g fill="#fff" opacity=".6"><circle cx="30" cy="40" r="1"/><circle cx="560" cy="30" r="1.2"/><circle cx="300" cy="300" r="1"/><circle cx="470" cy="280" r="1"/><circle cx="120" cy="290" r="1.1"/><circle cx="380" cy="24" r="1"/></g><g fill="none" stroke="#5E7BC8" stroke-width="1.6" opacity=".8"><path d="M70 90 Q120 110 160 130"/><path d="M70 230 Q120 200 160 190"/><path d="M160 130 Q210 90 250 80"/><path d="M160 190 Q220 210 250 230"/><path d="M250 80 Q280 150 300 160"/><path d="M250 230 Q280 190 300 160"/><path d="M300 160 Q360 150 400 160"/><path d="M400 160 Q460 110 520 90"/><path d="M400 160 Q470 165 530 170"/><path d="M400 160 Q460 220 520 250"/></g><path d="M250 80 Q280 150 300 160" fill="none" stroke="#9FF0D0" stroke-width="2.4"/><circle cx="276" cy="130" r="4" fill="#FFB24A"/><circle cx="350" cy="155" r="4" fill="#5FDDE6"/><circle cx="455" cy="120" r="4" fill="#B8F06C"/><g fill="#F5A8C3"><circle cx="70" cy="90" r="7"/><circle cx="70" cy="230" r="7"/></g><g fill="#E6D3A3"><circle cx="160" cy="130" r="8"/><circle cx="160" cy="190" r="8"/><circle cx="250" cy="80" r="8"/><circle cx="250" cy="230" r="8"/></g><g fill="none" stroke="#FFE7A8" stroke-opacity=".5"><ellipse cx="160" cy="130" rx="14" ry="5"/><ellipse cx="250" cy="80" rx="14" ry="5"/></g><circle cx="300" cy="160" r="34" fill="url(#neb)"/><circle cx="300" cy="160" r="5" fill="#fff"/><circle cx="400" cy="160" r="22" fill="url(#glow)"/><circle cx="400" cy="160" r="9" fill="#9FF0D0"/><path d="M400 140 L394 96 L406 96 Z M400 180 L406 224 L394 224 Z" fill="#9FF0D0" opacity=".35"/><g fill="#6FA8FF"><circle cx="520" cy="90" r="17"/><circle cx="530" cy="170" r="17"/><circle cx="520" cy="250" r="17"/></g><g fill="#FFE7A8"><circle cx="545" cy="84" r="3"/><circle cx="505" cy="176" r="3"/></g></svg>
