<svg xmlns="http://www.w3.org/2000/svg" viewBox="0 0 600 320"><defs><linearGradient id="bg" x1="0" y1="0" x2="0" y2="1"><stop offset="0" stop-color="#0D0A2C"/><stop offset="1" stop-color="#02030A"/></linearGradient><radialGradient id="s"><stop offset="0" stop-color="#FFF6DD"/><stop offset=".35" stop-color="#FFD89A"/><stop offset="1" stop-color="#FFB86B" stop-opacity="0"/></radialGradient></defs><rect width="600" height="320" fill="url(#bg)"/><g fill="#fff" opacity=".6"><circle cx="40" cy="30" r="1"/><circle cx="560" cy="40" r="1.2"/><circle cx="520" cy="290" r="1"/><circle cx="70" cy="270" r="1.1"/></g><g fill="none" stroke="#8FB8FF" stroke-opacity=".3"><ellipse cx="300" cy="170" rx="60" ry="24"/><ellipse cx="300" cy="170" rx="100" ry="40"/><ellipse cx="300" cy="170" rx="140" ry="56"/><ellipse cx="300" cy="170" rx="180" ry="72"/><ellipse cx="300" cy="170" rx="220" ry="88"/></g><circle cx="300" cy="170" r="70" fill="url(#s)"/><line x1="300" y1="170" x2="398" y2="143" stroke="#7FD1B9" stroke-width="2" opacity=".8"/><circle cx="398" cy="143" r="12" fill="#7FD1B9"/><circle cx="398" cy="143" r="24" fill="none" stroke="#7FD1B9" stroke-opacity=".5"/><circle cx="205" cy="200" r="11" fill="#6FA8FF"/><circle cx="430" cy="215" r="12" fill="#FF7A68"/><circle cx="160" cy="130" r="10" fill="#C7A4FF"/><circle cx="505" cy="165" r="9" fill="#B6E07A"/><g fill="#FFE7A8" opacity=".85"><rect x="232" y="262" width="12" height="36" rx="3"/><rect x="258" y="278" width="12" height="20" rx="3"/><rect x="284" y="270" width="12" height="28" rx="3"/><rect x="310" y="282" width="12" height="16" rx="3"/><rect x="336" y="274" width="12" height="24" rx="3"/></g><text x="30" y="40" font-family="monospace" font-size="14" fill="#FFE7A8" opacity=".8">♪ vruntime += 1024 / weight</text></svg>
